<svg width="52" height="52" viewBox="0 0 52 52" fill="none" xmlns="http://www.w3.org/2000/svg">
<g clip-path="url(#clip0_59_1116)">
<path d="M36.007 0H36.3769C36.6738 3.66715 35.274 6.40724 33.5729 8.39152C31.9037 10.3621 29.618 12.2733 25.9212 11.9833C25.6746 8.36868 27.0766 5.83182 28.7755 3.85211C30.351 2.00711 33.2395 0.365345 36.007 0ZM47.198 38.1694V38.2722C46.159 41.4187 44.6771 44.1154 42.8686 46.618C41.2177 48.89 39.1946 51.9475 35.5823 51.9475C32.4609 51.9475 30.3875 49.9404 27.1885 49.8856C23.8045 49.8308 21.9435 51.5639 18.8495 52H17.7946C15.5226 51.6712 13.689 49.8719 12.3532 48.2506C8.41432 43.4601 5.37054 37.272 4.80426 29.3532V27.0264C5.04402 21.359 7.79781 16.7511 11.4581 14.5179C13.3899 13.3305 16.0455 12.319 19.0025 12.7711C20.2698 12.9675 21.5645 13.4013 22.6993 13.8306C23.7748 14.2439 25.1197 14.9769 26.3939 14.938C27.257 14.9129 28.1156 14.4631 28.9855 14.1457C31.5338 13.2255 34.0319 12.1706 37.3245 12.6661C41.2817 13.2643 44.0903 15.0225 45.8256 17.7352C42.4782 19.8656 39.8317 23.0761 40.2838 28.5586C40.6857 33.5387 43.5811 36.4523 47.198 38.1694Z" fill="black"/>
</g>
<defs>
<clipPath id="clip0_59_1116">
<rect width="52" height="52" fill="white"/>
</clipPath>
</defs>
</svg>
