<svg width="24" height="24" viewBox="0 0 24 24" fill="none" xmlns="http://www.w3.org/2000/svg">
    <path d="M7.97437 17.6C7.91437 17.6 7.84437 17.6 7.78437 17.57C7.38437 17.46 7.14437 17.05 7.25437 16.65L8.16437 13.27C8.16437 13.27 8.18438 13.2 8.19438 13.17C6.86437 12.62 5.75437 11.81 4.86437 10.98C4.84437 11.01 4.82437 11.03 4.79437 11.06L2.32437 13.53C2.03437 13.82 1.55437 13.82 1.26438 13.53C0.974375 13.24 0.974375 12.76 1.26438 12.47L3.73438 9.99999C3.73438 9.99999 3.80437 9.93999 3.84437 9.90999C2.78437 8.66999 2.23437 7.58999 2.18437 7.47999C1.99437 7.10999 2.14437 6.65999 2.51437 6.47999C2.88437 6.29999 3.33437 6.43999 3.52437 6.80999C3.55437 6.86999 6.40438 12.4 11.8544 12.4C17.3044 12.4 20.1544 6.86999 20.1844 6.80999C20.3744 6.43999 20.8244 6.28999 21.1944 6.47999C21.5644 6.66999 21.7144 7.10999 21.5244 7.47999C21.4744 7.57999 20.9544 8.59999 19.9444 9.79999C20.0644 9.82999 20.1744 9.89999 20.2644 9.98999L22.7444 12.46C23.0344 12.75 23.0344 13.23 22.7444 13.52C22.4544 13.81 21.9744 13.81 21.6844 13.52L19.2044 11.05C19.1244 10.97 19.0744 10.88 19.0344 10.79C18.1144 11.69 16.9444 12.57 15.5144 13.17C15.5244 13.2 15.5444 13.24 15.5444 13.27L16.4544 16.65C16.5644 17.05 16.3244 17.46 15.9244 17.57C15.5244 17.68 15.1144 17.44 15.0044 17.04L14.0944 13.66V13.64C12.7044 13.97 11.0044 13.97 9.61438 13.64V13.66L8.70437 17.04C8.61437 17.37 8.31438 17.6 7.98438 17.6H7.97437Z"
          fill="currentColor"/>
</svg>
