<svg width="24" height="24" viewBox="0 0 24 24" fill="none" xmlns="http://www.w3.org/2000/svg">
    <path fill-rule="evenodd" clip-rule="evenodd"
          d="M3.85783 12.0001C4.20532 12.5877 5.01898 13.8237 6.29021 14.9498C7.68031 16.1813 9.57973 17.25 11.9999 17.25C14.42 17.25 16.3194 16.1811 17.7095 14.9495C18.9806 13.8234 19.7943 12.5874 20.142 11.9999C19.7945 11.4123 18.9808 10.1763 17.7096 9.05015C16.3195 7.81874 14.4201 6.75 11.9999 6.75C9.57978 6.75 7.68036 7.81895 6.29024 9.0505C5.01914 10.1766 4.20549 11.4126 3.85783 12.0001ZM5.29555 7.92775C6.86642 6.53605 9.10501 5.25 11.9999 5.25C14.8947 5.25 17.1333 6.53576 18.7042 7.92735C20.2706 9.31492 21.2107 10.8387 21.5358 11.414C21.6375 11.5925 21.691 11.7945 21.691 12C21.691 12.2065 21.637 12.4093 21.5345 12.5885C21.2083 13.1647 20.2686 14.6863 18.7042 16.0723C17.1334 17.4639 14.8948 18.75 11.9999 18.75C9.10506 18.75 6.86648 17.4642 5.29558 16.0727C3.7316 14.6872 2.79199 13.166 2.46546 12.5887C2.36269 12.4095 2.30859 12.2066 2.30859 12C2.30859 11.7934 2.36272 11.5904 2.46554 11.4112C2.79189 10.8347 3.73148 9.31341 5.29555 7.92775Z"
          fill="currentColor"/>
    <path d="M15 12.043C15 12.8386 14.6839 13.6017 14.1213 14.1643C13.5587 14.7269 12.7956 15.043 12 15.043C11.2044 15.043 10.4413 14.7269 9.87868 14.1643C9.31607 13.6017 9 12.8386 9 12.043C9 11.2473 9.31607 10.4843 9.87868 9.92168C10.4413 9.35907 11.2044 9.043 12 9.043C12.7956 9.043 13.5587 9.35907 14.1213 9.92168C14.6839 10.4843 15 11.2473 15 12.043Z"
          fill="currentColor"/>
</svg>
