<svg width="52" height="52" viewBox="0 0 52 52" fill="none" xmlns="http://www.w3.org/2000/svg">
<g clip-path="url(#clip0_59_1115)">
<path d="M50.0366 21.4793L28.8263 21.4783C27.8897 21.4783 27.1305 22.2374 27.1305 23.174V29.9498C27.1305 30.8862 27.8897 31.6454 28.8262 31.6454H40.7705C39.4626 35.0398 37.0215 37.8824 33.9069 39.6886L39 48.5051C47.1699 43.7801 52 35.4897 52 26.2091C52 24.8877 51.9026 23.9431 51.7078 22.8794C51.5597 22.0713 50.8581 21.4793 50.0366 21.4793Z" fill="#167EE6"/>
<path d="M26 41.8261C20.1547 41.8261 15.0518 38.6323 12.3111 33.9063L3.49487 38.9879C7.9814 46.7637 16.3861 52 26 52C30.7163 52 35.1664 50.7301 39 48.5172V48.5051L33.9069 39.6885C31.5773 41.0397 28.8814 41.8261 26 41.8261Z" fill="#12B347"/>
<path d="M39 48.5172V48.5051L33.9069 39.6885C31.5773 41.0396 28.8816 41.8261 26 41.8261V52C30.7163 52 35.1666 50.7301 39 48.5172Z" fill="#0F993E"/>
<path d="M10.1739 26C10.1739 23.1188 10.9602 20.4232 12.3111 18.0937L3.49487 13.0121C1.26973 16.8336 0 21.2717 0 26C0 30.7283 1.26973 35.1664 3.49487 38.9879L12.3111 33.9063C10.9602 31.5768 10.1739 28.8812 10.1739 26Z" fill="#FFD500"/>
<path d="M26 10.1739C29.8117 10.1739 33.313 11.5284 36.0478 13.7813C36.7225 14.3371 37.7031 14.297 38.3211 13.6789L43.1219 8.87809C43.8231 8.1769 43.7731 7.02914 43.0241 6.37934C38.4421 2.40429 32.4804 0 26 0C16.3861 0 7.9814 5.23626 3.49487 13.0121L12.3111 18.0937C15.0518 13.3677 20.1547 10.1739 26 10.1739Z" fill="#FF4B26"/>
<path d="M36.0478 13.7813C36.7225 14.3371 37.7031 14.297 38.3211 13.6789L43.1219 8.87809C43.823 8.1769 43.773 7.02914 43.0241 6.37934C38.4421 2.40419 32.4804 0 26 0V10.1739C29.8116 10.1739 33.313 11.5284 36.0478 13.7813Z" fill="#D93F21"/>
</g>
<defs>
<clipPath id="clip0_59_1115">
<rect width="52" height="52" fill="white"/>
</clipPath>
</defs>
</svg>
