<svg width="24" height="24" viewBox="0 0 24 24" fill="none" xmlns="http://www.w3.org/2000/svg">
    <path d="M18.4166 8.722V7.41665C18.4166 3.87285 15.5438 1 12 1C8.45615 1 5.58334 3.87285 5.58334 7.41665V8.722C3.91504 9.45011 2.83575 11.0964 2.83334 12.9167V18.4167C2.83635 20.9467 4.8866 22.997 7.41665 23H16.5833C19.1133 22.997 21.1636 20.9467 21.1666 18.4167V12.9167C21.1643 11.0964 20.085 9.45011 18.4166 8.722ZM12.9166 16.5833C12.9166 17.0896 12.5063 17.5 12 17.5C11.4937 17.5 11.0833 17.0896 11.0833 16.5833V14.75C11.0833 14.2437 11.4937 13.8333 12 13.8333C12.5063 13.8333 12.9166 14.2437 12.9166 14.75V16.5833ZM16.5833 8.33335H7.41665V7.4167C7.41665 4.88541 9.46866 2.83335 12 2.83335C14.5313 2.83335 16.5833 4.88536 16.5833 7.4167V8.33335Z"
          fill="black"/>
</svg>
