<svg width="24" height="24" viewBox="0 0 24 24" fill="none" xmlns="http://www.w3.org/2000/svg">
    <path d="M12.04 2C9.42 2 7.29 4.13 7.29 6.75C7.29 9.32 9.3 11.4 11.92 11.49C12 11.48 12.08 11.48 12.14 11.49H12.21C13.4394 11.449 14.6046 10.9315 15.4593 10.0469C16.314 9.16234 16.7912 7.98004 16.79 6.75C16.79 4.13 14.66 2 12.04 2ZM17.12 14.149C14.33 12.289 9.78 12.289 6.97 14.149C5.7 14.999 5 16.149 5 17.379C5 18.609 5.7 19.749 6.96 20.589C8.36 21.529 10.2 21.999 12.04 21.999C13.88 21.999 15.72 21.529 17.12 20.589C18.38 19.739 19.08 18.599 19.08 17.359C19.07 16.129 18.38 14.989 17.12 14.149Z"
          fill="black"/>
</svg>
